<?xml version="1.0" standalone="no"?>
<!DOCTYPE svg PUBLIC "-//W3C//DTD SVG 20010904//EN"
 "http://www.w3.org/TR/2001/REC-SVG-20010904/DTD/svg10.dtd">
<svg version="1.0" xmlns="http://www.w3.org/2000/svg"
 width="512.000000pt" height="512.000000pt" viewBox="0 0 512.000000 512.000000"
 preserveAspectRatio="xMidYMid meet">

<g transform="translate(0.000000,512.000000) scale(0.100000,-0.100000)"
fill="#000000" stroke="none">
<path d="M2503 5105 c-39 -17 -61 -57 -101 -190 -87 -284 -135 -547 -166 -904
-8 -90 -19 -168 -24 -173 -14 -14 -74 7 -101 36 -24 25 -29 60 -17 121 6 34 3
46 -14 68 -23 29 -65 36 -100 17 -44 -24 -58 -175 -22 -246 23 -44 88 -108
121 -119 12 -3 21 -11 21 -16 0 -9 -66 -65 -233 -194 l-99 -76 -311 11 c-171
6 -312 12 -313 13 -1 1 -23 105 -48 231 -48 234 -52 248 -93 303 -27 35 -113
83 -150 83 -15 0 -27 8 -33 23 -30 70 -65 283 -76 463 l-6 110 53 34 c80 50
99 70 99 102 0 35 -40 78 -71 78 -13 0 -64 -25 -115 -56 -66 -40 -96 -64 -105
-86 -25 -60 8 -422 55 -610 l23 -92 -33 -32 c-78 -73 -95 -184 -46 -289 59
-124 227 -423 274 -487 58 -78 56 -77 348 -173 113 -37 206 -69 208 -70 1 -1
-7 -26 -18 -56 -30 -75 -29 -167 3 -230 l24 -49 -38 -26 c-50 -34 -83 -85
-109 -166 l-21 -66 -112 -40 c-62 -21 -190 -65 -285 -97 -109 -36 -184 -66
-204 -83 -32 -28 -58 -77 -58 -113 0 -13 -33 -56 -89 -115 -138 -143 -245
-322 -302 -502 -21 -67 -22 -76 -8 -100 20 -37 63 -51 97 -32 19 11 35 39 62
110 66 173 144 301 256 420 61 65 67 68 92 58 18 -7 99 -8 239 -3 l213 7 0
-158 0 -157 -217 -356 c-210 -344 -217 -357 -217 -408 0 -37 6 -60 20 -80 19
-26 20 -32 7 -78 -46 -174 -93 -468 -93 -578 0 -74 75 -113 124 -64 20 20 24
38 30 118 9 108 40 307 62 394 35 138 32 132 63 138 17 4 86 58 180 142 84 75
154 135 156 133 2 -2 20 -41 40 -87 41 -97 137 -264 171 -298 30 -30 69 -29
99 2 35 34 31 65 -19 142 -112 175 -186 370 -233 618 -21 109 -29 472 -14 606
27 231 100 516 145 558 71 67 331 79 542 26 145 -37 276 -130 362 -259 84
-126 94 -166 101 -419 l6 -219 28 -24 c35 -30 59 -30 94 0 l28 24 6 219 c7
247 16 289 91 405 100 157 235 245 443 289 81 18 316 18 383 0 84 -21 107 -48
142 -159 112 -365 133 -807 55 -1149 -45 -198 -141 -418 -246 -566 -72 -102
-228 -255 -319 -315 -138 -91 -320 -161 -455 -177 -33 -4 -68 -9 -77 -11 -17
-5 -18 27 -19 563 0 413 -3 578 -12 603 -14 41 -52 59 -94 44 -51 -17 -52 -32
-52 -647 l-1 -568 -37 6 c-251 41 -390 95 -559 220 -83 62 -117 69 -152 32
-22 -24 -27 -51 -15 -82 10 -27 150 -126 252 -179 106 -55 224 -97 343 -122
116 -25 380 -25 496 0 335 72 621 260 820 542 61 85 192 331 192 359 0 36 31
16 171 -110 95 -85 163 -138 180 -142 31 -6 28 0 63 -138 22 -87 53 -286 62
-394 6 -80 10 -98 30 -118 49 -49 124 -10 124 64 0 106 -39 355 -80 518 -23
90 -25 113 -15 125 22 26 37 89 30 123 -4 17 -103 190 -221 383 l-214 351 0
157 0 158 213 -7 c140 -5 221 -4 239 3 25 10 31 7 93 -60 113 -119 208 -282
276 -473 27 -73 103 -86 138 -23 14 24 13 33 -8 100 -57 179 -164 358 -301
501 -71 75 -88 99 -93 132 -14 90 -44 109 -317 201 -377 127 -336 106 -360
181 -26 81 -61 134 -109 167 l-38 26 24 49 c32 63 33 155 3 230 -11 30 -19 54
-18 55 2 1 102 35 223 75 121 41 236 83 256 93 19 11 55 47 80 81 45 61 214
363 271 482 49 105 32 216 -47 290 l-34 33 15 48 c54 179 93 604 61 662 -17
29 -184 132 -215 132 -33 0 -72 -43 -72 -79 0 -32 25 -57 104 -103 53 -32 52
-26 35 -223 -10 -123 -52 -353 -70 -386 -5 -11 -20 -19 -32 -19 -37 0 -123
-48 -150 -83 -41 -55 -45 -69 -93 -303 -25 -126 -47 -230 -48 -231 -1 -1 -143
-7 -315 -13 l-314 -11 -26 24 c-14 13 -64 52 -111 87 -110 82 -190 149 -190
160 0 5 9 12 21 15 29 9 97 72 114 106 26 50 34 108 23 172 -13 71 -35 97 -82
97 -51 0 -80 -40 -70 -95 12 -61 7 -96 -17 -121 -27 -29 -87 -50 -101 -36 -5
5 -16 81 -24 168 -18 206 -21 221 -47 239 -31 21 -62 19 -93 -8 l-27 -24 12
-169 c7 -93 19 -194 27 -224 31 -111 125 -218 329 -373 218 -165 309 -258 401
-412 94 -156 112 -221 79 -285 -24 -46 -49 -54 -160 -51 -161 3 -336 -28 -454
-80 -150 -68 -412 -88 -617 -48 -59 11 -124 29 -143 39 -108 54 -311 93 -476
89 -80 -2 -106 1 -126 14 -60 40 -65 116 -14 217 109 217 206 324 484 535 183
139 275 247 305 355 8 30 17 100 21 155 12 192 47 444 86 615 32 140 81 310
89 310 8 0 56 -168 90 -315 24 -103 39 -125 87 -125 43 0 73 30 73 73 0 68
-102 442 -142 520 -30 60 -98 81 -165 52z m-1621 -1214 c20 -23 32 -66 62
-217 20 -104 39 -196 42 -206 3 -11 -6 -21 -27 -32 -18 -9 -33 -15 -34 -14 -1
2 -48 87 -103 189 -66 120 -102 198 -102 217 0 18 11 43 26 61 21 26 33 31 69
31 35 0 48 -5 67 -29z m3492 -2 c15 -18 26 -43 26 -61 0 -19 -36 -97 -102
-217 -55 -102 -102 -187 -103 -189 -1 -1 -16 5 -34 14 -21 11 -30 21 -27 32 3
10 22 102 42 206 44 222 57 246 129 246 36 0 48 -5 69 -31z m-2762 -606 c7 -4
-97 -156 -110 -161 -15 -5 -476 155 -480 167 -4 11 51 12 289 6 162 -4 297 -9
301 -12z m2486 5 c-3 -9 -455 -168 -479 -168 -6 0 -104 137 -110 155 -4 10
164 18 454 23 103 1 138 -1 135 -10z m-1448 -893 c0 -3 -13 -23 -29 -45 -15
-21 -34 -53 -41 -70 -16 -38 -24 -38 -40 0 -7 17 -26 49 -41 70 -16 22 -29 42
-29 45 0 3 41 5 90 5 50 0 90 -2 90 -5z m-1431 -197 c0 -7 -6 -42 -13 -78
l-12 -65 -119 -6 c-212 -11 -317 -10 -313 2 4 11 415 157 446 158 6 1 12 -5
11 -11z m2916 -61 c120 -40 221 -79 223 -85 4 -13 -98 -14 -313 -3 l-119 6
-12 65 c-15 79 -16 90 -6 90 4 0 106 -33 227 -73z m-2935 -850 c0 -12 8 -56
18 -98 l19 -76 -163 -147 c-156 -139 -192 -166 -187 -139 6 27 296 492 304
487 5 -3 9 -15 9 -27z m2889 -215 c78 -128 142 -238 144 -245 5 -27 -31 0
-187 139 l-162 146 19 92 c25 118 26 121 36 110 5 -5 72 -114 150 -242z"/>
<path d="M2016 3239 c-25 -19 -26 -25 -26 -114 0 -89 1 -95 26 -114 33 -26 65
-27 95 -2 22 18 24 26 24 116 0 90 -2 98 -24 116 -30 25 -62 24 -95 -2z"/>
<path d="M3009 3241 c-22 -18 -24 -26 -24 -116 0 -90 2 -98 24 -116 30 -25 62
-24 95 2 25 19 26 25 26 114 0 89 -1 95 -26 114 -33 26 -65 27 -95 2z"/>
</g>
</svg>
