<?xml version="1.0" standalone="no"?>
<!DOCTYPE svg PUBLIC "-//W3C//DTD SVG 20010904//EN"
 "http://www.w3.org/TR/2001/REC-SVG-20010904/DTD/svg10.dtd">
<svg version="1.0" xmlns="http://www.w3.org/2000/svg"
 width="512.000000pt" height="512.000000pt" viewBox="0 0 512.000000 512.000000"
 preserveAspectRatio="xMidYMid meet">

<g transform="translate(0.000000,512.000000) scale(0.100000,-0.100000)"
fill="#000000" stroke="none">
<path d="M1945 5095 c-28 -27 -32 -65 -13 -127 20 -67 77 -119 208 -192 66
-37 120 -70 120 -73 0 -3 -22 -30 -50 -59 l-50 -53 0 -108 c0 -100 2 -111 26
-146 l25 -38 -31 -36 c-17 -19 -43 -59 -57 -88 l-26 -53 -141 169 c-134 160
-151 177 -355 339 -232 185 -249 193 -296 145 -32 -31 -33 -78 -2 -108 12 -12
106 -89 209 -171 184 -146 191 -153 378 -377 l190 -229 0 -69 c0 -52 -6 -82
-25 -124 -30 -65 -55 -172 -55 -239 l0 -48 -70 -35 c-38 -19 -73 -43 -78 -52
-6 -10 -27 -141 -48 -292 l-39 -275 -202 -243 c-221 -265 -228 -279 -178 -328
31 -32 76 -33 108 -2 14 12 115 130 224 262 l199 241 38 269 c21 149 40 272
42 274 2 2 4 -182 4 -410 l0 -414 -33 -15 c-30 -14 -37 -30 -120 -250 -48
-129 -103 -277 -123 -328 l-36 -93 -284 -324 c-309 -354 -312 -358 -259 -410
31 -32 76 -33 108 -3 14 13 149 165 301 339 l275 316 83 222 83 222 3 -613 3
-613 252 -420 c270 -448 272 -451 334 -429 22 7 76 91 280 429 l252 420 3 613
3 613 83 -222 83 -222 275 -316 c152 -174 287 -326 301 -338 32 -31 77 -30
108 2 53 52 50 56 -259 410 l-284 324 -36 93 c-20 51 -75 199 -123 328 -83
220 -90 236 -120 250 l-33 15 0 414 c0 228 2 412 4 410 2 -2 21 -125 42 -274
l38 -269 199 -241 c109 -132 210 -250 224 -262 32 -31 77 -30 108 2 50 49 43
63 -178 328 l-202 243 -39 275 c-21 151 -42 282 -48 292 -5 9 -40 33 -78 52
l-70 35 0 48 c0 67 -25 174 -55 239 -19 42 -25 72 -25 124 l0 69 190 229 c187
224 194 231 378 377 103 82 197 159 210 171 30 30 29 77 -3 108 -47 48 -64 40
-296 -145 -204 -162 -221 -179 -355 -339 l-141 -169 -26 53 c-14 29 -40 69
-57 88 l-31 36 25 38 c24 35 26 46 26 146 l0 108 -50 53 c-27 29 -50 56 -50
59 0 3 54 35 120 72 163 90 220 159 220 264 0 42 -38 81 -80 81 -41 0 -80 -39
-80 -80 0 -16 -8 -38 -18 -48 -10 -10 -86 -57 -170 -105 l-151 -87 -140 0
-140 0 -152 86 c-83 48 -160 95 -170 105 -11 11 -19 33 -19 49 0 41 -39 80
-80 80 -19 0 -40 -9 -55 -25z m761 -476 c12 -13 17 -32 15 -54 -2 -26 4 -41
23 -60 14 -14 32 -25 41 -25 21 0 20 -52 -2 -79 -16 -18 -23 -19 -58 -11 -52
12 -278 12 -330 0 -35 -8 -42 -7 -57 11 -23 27 -24 79 -3 79 9 0 27 11 41 25
19 19 25 34 23 60 -2 22 3 41 15 54 17 19 30 21 146 21 116 0 129 -2 146 -21z
m30 -403 c59 -27 116 -90 132 -145 7 -21 12 -82 12 -135 l0 -96 -320 0 -320 0
0 96 c0 53 5 114 12 135 16 55 73 118 132 145 45 21 66 24 176 24 110 0 131
-3 176 -24z m-354 -633 l98 -98 0 -1292 0 -1291 -77 -131 c-43 -72 -80 -130
-83 -130 -3 0 -40 58 -83 130 l-77 131 2 1322 c3 1388 2 1349 48 1424 34 56
60 46 172 -65z m200 75 l-22 -22 -22 22 -22 22 44 0 44 0 -22 -22z m332 -17
c46 -79 46 -69 46 -1443 l0 -1296 -77 -131 c-43 -72 -80 -130 -83 -130 -3 0
-40 58 -82 130 l-78 131 0 1291 0 1292 98 98 c84 85 101 97 127 95 21 -2 34
-12 49 -37z m-281 -3036 c37 -62 67 -119 67 -125 0 -13 -132 -239 -140 -239
-8 0 -140 226 -140 239 0 13 132 239 140 239 3 0 35 -51 73 -114z"/>
</g>
</svg>
