<?xml version="1.0" standalone="no"?>
<!DOCTYPE svg PUBLIC "-//W3C//DTD SVG 20010904//EN"
 "http://www.w3.org/TR/2001/REC-SVG-20010904/DTD/svg10.dtd">
<svg version="1.0" xmlns="http://www.w3.org/2000/svg"
 width="512.000000pt" height="512.000000pt" viewBox="0 0 512.000000 512.000000"
 preserveAspectRatio="xMidYMid meet">

<g transform="translate(0.000000,512.000000) scale(0.100000,-0.100000)"
fill="#000000" stroke="none">
<path d="M2275 5111 c-11 -4 -34 -28 -51 -52 -39 -56 -61 -59 -171 -24 -74 24
-90 26 -123 16 -75 -22 -116 -106 -88 -179 14 -39 40 -59 180 -139 94 -54 232
-165 270 -217 63 -87 62 -82 66 -433 l3 -322 -25 -16 c-52 -34 -80 -107 -66
-170 l8 -36 -31 6 c-18 3 -52 9 -77 13 -43 7 -45 9 -42 38 4 44 -30 84 -72 84
-18 0 -40 -6 -49 -12 -9 -7 -37 -61 -62 -120 -49 -116 -49 -140 -3 -172 33
-24 56 -20 91 15 l31 32 143 -24 c79 -13 143 -27 143 -31 0 -12 -58 -46 -110
-64 -25 -9 -91 -38 -148 -65 -195 -95 -303 -243 -356 -491 l-6 -26 -137 55
c-76 30 -152 61 -169 68 l-32 13 99 311 c55 171 99 324 99 340 0 31 -214 556
-238 584 -20 23 -84 23 -105 -1 -10 -10 -17 -32 -17 -49 0 -17 47 -144 105
-284 l105 -253 -105 -333 c-58 -183 -105 -345 -105 -361 0 -15 6 -35 13 -44 6
-9 114 -57 238 -108 l225 -91 12 -58 c7 -31 12 -109 12 -172 l0 -114 -212 3
-213 3 -275 -176 c-151 -97 -280 -182 -286 -188 -16 -17 -244 -604 -244 -628
0 -28 44 -69 73 -69 48 0 65 30 177 314 60 154 113 282 117 286 4 4 115 76
245 159 l238 151 159 0 c87 0 173 -3 190 -6 l31 -6 0 -263 0 -263 -210 -122
c-116 -67 -214 -130 -219 -139 -5 -9 -39 -151 -76 -317 l-68 -300 144 -315
c79 -173 152 -322 161 -331 39 -39 118 -3 118 53 0 17 -57 153 -130 314 -72
156 -130 292 -130 303 0 17 108 504 113 508 1 1 68 40 148 86 l147 85 5 -181
c6 -205 17 -263 79 -396 77 -167 204 -300 369 -385 136 -70 219 -90 379 -90
143 0 204 12 322 59 222 90 399 287 478 531 20 60 24 97 28 263 3 135 7 192
16 191 6 0 74 -37 151 -82 l140 -83 58 -257 58 -257 -135 -295 c-75 -163 -136
-305 -136 -316 0 -28 44 -69 73 -69 14 0 34 8 46 18 29 24 301 617 301 656 -1
58 -128 597 -146 617 -9 10 -85 58 -168 106 -83 47 -175 101 -203 120 l-53 33
0 259 0 259 31 6 c17 3 104 6 194 6 l162 0 244 -156 244 -156 110 -281 c60
-154 118 -288 129 -299 44 -40 116 -7 116 54 0 48 -218 598 -249 629 -14 14
-144 101 -289 193 l-263 167 -212 -2 -212 -2 1 119 c1 65 5 142 9 170 l7 51
221 88 c218 87 267 115 267 153 0 11 -47 168 -105 351 -58 182 -105 337 -105
345 0 7 47 127 105 266 58 139 105 262 105 274 0 59 -86 89 -127 44 -19 -22
-243 -553 -243 -577 0 -7 46 -156 101 -332 56 -176 100 -321 98 -323 -10 -7
-315 -126 -325 -126 -6 0 -18 34 -28 76 -28 120 -87 227 -170 310 -80 80 -160
128 -295 178 -85 32 -131 58 -131 76 0 3 64 17 141 30 l141 23 17 -20 c19 -24
53 -43 76 -43 24 0 65 46 65 73 0 28 -75 204 -97 230 -10 10 -31 17 -54 17
-47 0 -72 -31 -67 -82 3 -31 2 -33 -42 -40 -25 -4 -59 -10 -76 -13 l-32 -5 5
44 c7 59 -11 109 -53 145 -32 29 -34 34 -34 96 0 57 -3 69 -25 90 -30 30 -64
32 -99 4 -23 -18 -26 -28 -26 -80 l0 -59 -55 0 -55 0 0 288 c0 311 -8 380 -53
468 -43 85 -153 192 -296 288 l-53 36 49 0 c33 0 66 8 99 25 27 14 52 25 57
25 4 0 7 -23 7 -50 0 -122 84 -211 212 -226 149 -17 264 75 276 221 l5 64 26
-18 c37 -25 87 -41 135 -42 35 0 39 -2 23 -12 -61 -39 -170 -126 -221 -175
-117 -112 -156 -208 -156 -382 0 -105 1 -109 26 -129 35 -28 69 -26 99 4 23
22 25 32 25 118 0 55 6 115 15 145 28 94 175 227 377 341 105 59 128 86 128
151 0 60 -30 105 -86 126 -45 17 -47 17 -125 -9 -118 -41 -149 -37 -179 23
-22 44 -65 65 -113 56 -62 -12 -116 -100 -124 -200 -6 -84 -19 -113 -55 -125
-44 -16 -69 -14 -105 9 -29 17 -33 25 -33 63 0 61 -25 150 -55 196 -37 55 -86
73 -140 52z m431 -1496 c3 -8 -6 -29 -20 -46 -60 -71 -84 -152 -65 -221 17
-63 95 -137 184 -173 169 -67 236 -104 294 -162 95 -95 149 -238 154 -404 l2
-83 -160 -31 c-177 -35 -227 -55 -283 -117 -103 -114 -150 -142 -247 -141 -91
0 -152 31 -226 114 -80 90 -126 111 -314 145 -82 15 -153 30 -157 33 -9 9 9
172 28 244 23 91 59 160 115 221 64 70 126 109 248 156 55 21 115 47 133 58
134 83 154 225 52 360 -44 56 -33 62 121 62 111 0 137 -3 141 -15z m-709
-1265 c156 -30 180 -41 243 -111 62 -72 124 -114 198 -135 l52 -15 0 -272 c0
-264 1 -271 22 -294 29 -31 72 -30 103 2 l25 24 0 270 0 271 28 6 c68 17 148
69 222 144 61 64 83 80 115 85 22 4 82 16 134 26 51 11 95 19 97 19 3 0 3
-309 2 -687 l-3 -688 -27 -73 c-39 -108 -84 -177 -168 -263 -61 -61 -94 -85
-170 -123 -52 -26 -124 -52 -160 -60 l-65 -13 -5 391 c-3 215 -9 398 -13 407
-9 18 -49 39 -73 39 -8 0 -26 -11 -39 -25 l-25 -24 0 -390 c0 -214 -3 -392 -7
-394 -5 -3 -42 4 -83 14 -222 56 -408 228 -486 450 l-29 84 -3 678 c-2 372 -1
677 2 677 3 0 54 -9 113 -20z"/>
</g>
</svg>
