<?xml version="1.0" standalone="no"?>
<!DOCTYPE svg PUBLIC "-//W3C//DTD SVG 20010904//EN"
 "http://www.w3.org/TR/2001/REC-SVG-20010904/DTD/svg10.dtd">
<svg version="1.0" xmlns="http://www.w3.org/2000/svg"
 width="512.000000pt" height="512.000000pt" viewBox="0 0 512.000000 512.000000"
 preserveAspectRatio="xMidYMid meet">

<g transform="translate(0.000000,512.000000) scale(0.100000,-0.100000)"
fill="#000000" stroke="none">
<path d="M1305 4775 c-28 -27 -33 -70 -11 -100 9 -13 156 -77 414 -180 l399
-160 86 -122 86 -123 -14 -35 c-8 -19 -15 -43 -15 -54 0 -12 -24 -36 -67 -67
-38 -26 -112 -91 -165 -145 l-96 -97 -60 77 c-125 159 -292 311 -343 311 -41
0 -79 -39 -79 -81 0 -25 9 -40 48 -72 84 -73 217 -212 277 -292 58 -77 58 -78
41 -104 -41 -64 -98 -187 -112 -243 -12 -45 -14 -83 -10 -138 l7 -76 -46 -82
c-25 -45 -47 -82 -49 -82 -1 0 -38 15 -82 34 -133 58 -307 95 -447 96 -48 0
-62 -4 -82 -25 -32 -31 -33 -78 -2 -109 20 -20 37 -24 127 -29 58 -4 140 -15
182 -26 90 -23 228 -79 228 -92 0 -5 -38 -85 -84 -177 -407 -814 -716 -1615
-716 -1859 0 -112 54 -233 130 -293 56 -44 156 -88 230 -99 82 -14 254 -14
440 -1 477 34 806 137 998 313 l42 40 43 -40 c191 -176 520 -279 997 -313 186
-13 358 -13 440 1 71 11 170 53 224 94 78 60 136 186 136 298 0 245 -308 1044
-721 1869 -44 87 -79 162 -79 167 0 13 138 69 228 92 42 11 124 22 182 26 90
5 107 9 127 29 31 31 30 78 -2 109 -20 21 -34 25 -82 25 -140 -1 -314 -38
-447 -96 -44 -19 -81 -34 -82 -34 -2 0 -24 37 -49 82 l-46 82 7 76 c4 55 2 93
-10 138 -14 56 -71 179 -112 243 -17 26 -17 27 41 104 60 80 193 219 278 292
38 32 47 47 47 72 0 42 -38 81 -79 81 -51 0 -218 -152 -343 -311 l-60 -77 -96
97 c-53 54 -127 119 -164 145 -44 31 -68 55 -68 67 0 11 -7 35 -15 54 l-14 35
86 123 86 122 399 160 c258 103 405 167 414 180 33 46 -4 125 -58 125 -13 0
-211 -75 -442 -167 l-418 -168 -88 -125 c-63 -90 -93 -125 -106 -123 -11 1
-49 7 -86 14 -55 11 -81 11 -135 0 -38 -7 -76 -13 -87 -14 -14 -2 -43 33 -107
123 l-88 126 -418 167 c-230 92 -428 167 -441 167 -13 0 -34 -11 -47 -25z
m1344 -713 c19 -9 41 -27 49 -39 l14 -23 -152 0 -152 0 14 23 c23 35 77 57
138 57 33 0 69 -7 89 -18z m181 -243 c53 -33 240 -224 308 -317 34 -45 78
-117 99 -159 34 -69 38 -85 38 -153 0 -68 -4 -84 -39 -155 -69 -139 -222 -271
-390 -336 -199 -77 -373 -77 -572 0 -168 65 -321 197 -390 336 -35 71 -39 87
-39 155 0 68 4 84 38 153 53 108 143 225 266 348 158 158 132 149 411 149 222
0 237 -1 270 -21z m-960 -1033 c156 -166 391 -281 618 -302 l72 -7 0 -738 c0
-720 -1 -740 -21 -793 -24 -66 -93 -157 -157 -209 -196 -158 -576 -247 -1067
-251 -256 -1 -297 7 -370 78 -66 64 -79 131 -49 274 64 313 336 972 716 1742
l160 324 21 -29 c12 -17 46 -56 77 -89z m1610 -146 c316 -630 624 -1354 716
-1690 62 -223 57 -312 -21 -386 -73 -71 -114 -79 -370 -78 -492 3 -873 93
-1066 251 -81 67 -82 70 -51 144 l27 64 3 775 2 775 72 18 c84 21 213 79 295
134 70 46 190 158 228 213 l28 41 29 -53 c17 -29 65 -123 108 -208z"/>
</g>
</svg>
